<?xml version="1.0" encoding="utf-8"?>
<!-- Generator: Adobe Illustrator 28.3.0, SVG Export Plug-In . SVG Version: 6.00 Build 0)  -->
<svg version="1.1" id="Layer_1" xmlns="http://www.w3.org/2000/svg" xmlns:xlink="http://www.w3.org/1999/xlink" x="0px" y="0px"
	 viewBox="0 0 512 512" style="enable-background:new 0 0 512 512;" xml:space="preserve">
<style type="text/css">
	.st0{fill:#FFFFFF;}
</style>
<path class="st0" d="M158.1,96c18.7,0,33.9,15.2,33.9,33.9V192h128c17.7,0,32,14.3,32,32v64c0,17.7-14.3,32-32,32H192v62.1
	c0,18.7-15.2,33.9-33.9,33.9c-9,0-17.6-3.5-24-9.9L11.3,283.3C4.1,276.1,0,266.2,0,256c0-10.2,4.1-20.1,11.3-27.3l122.8-122.8
	C140.5,99.6,149.1,96,158.1,96z M320,64c0-17.7,14.3-32,32-32h64c53,0,96,43,96,96v256c0,53-43,96-96,96h-64c-17.7,0-32-14.3-32-32
	s14.3-32,32-32h64c17.7,0,32-14.3,32-32V128c0-17.7-14.3-32-32-32h-64C334.3,96,320,81.7,320,64z"/>
</svg>
